<svg width="32" height="32" viewBox="0 0 32 32" fill="none" xmlns="http://www.w3.org/2000/svg">
<g id="ic:baseline-search">
<path id="Vector" d="M22.582 20.3522H21.4077L20.9914 19.9508C22.4986 18.2027 23.327 15.9708 23.3253 13.6627C23.3253 11.7516 22.7586 9.8834 21.6969 8.29438C20.6351 6.70536 19.126 5.46687 17.3604 4.73553C15.5948 4.00419 13.6519 3.81283 11.7776 4.18567C9.9032 4.55851 8.18148 5.47878 6.83013 6.83013C5.47878 8.18148 4.55851 9.9032 4.18567 11.7776C3.81283 13.6519 4.00419 15.5948 4.73553 17.3604C5.46687 19.126 6.70536 20.6351 8.29438 21.6969C9.8834 22.7586 11.7516 23.3253 13.6627 23.3253C16.056 23.3253 18.2561 22.4483 19.9508 20.9914L20.3522 21.4077V22.582L27.785 30L30 27.785L22.582 20.3522ZM13.6627 20.3522C9.96112 20.3522 6.97313 17.3642 6.97313 13.6627C6.97313 9.96112 9.96112 6.97313 13.6627 6.97313C17.3642 6.97313 20.3522 9.96112 20.3522 13.6627C20.3522 17.3642 17.3642 20.3522 13.6627 20.3522Z" fill="white"/>
</g>
</svg>
